<?xml version="1.0" standalone="no"?>
<!DOCTYPE svg PUBLIC "-//W3C//DTD SVG 20010904//EN"
 "http://www.w3.org/TR/2001/REC-SVG-20010904/DTD/svg10.dtd">
<svg version="1.0" xmlns="http://www.w3.org/2000/svg"
 width="500.000000pt" height="500.000000pt" viewBox="0 0 500.000000 500.000000"
 preserveAspectRatio="xMidYMid meet">

<g transform="translate(0.000000,500.000000) scale(0.100000,-0.100000)"
fill="#000000" stroke="none">
<path d="M2328 4880 c-145 -24 -365 -99 -472 -160 -47 -28 -89 -50 -92 -50 -3
0 -29 -15 -57 -34 -95 -62 -182 -108 -225 -121 -99 -30 -269 -177 -355 -308
-21 -31 -44 -57 -51 -57 -24 0 -40 -28 -29 -52 7 -16 5 -35 -9 -70 -19 -52
-24 -128 -8 -128 16 0 11 -38 -10 -80 -48 -95 -51 -329 -5 -443 30 -76 35
-215 10 -263 -8 -16 -15 -42 -15 -57 0 -31 40 -107 78 -149 25 -27 23 -48 -5
-48 -22 0 -68 -39 -69 -59 -1 -9 -13 -36 -28 -59 -32 -50 -33 -96 -7 -183 11
-35 23 -82 27 -104 9 -52 57 -167 93 -225 49 -78 88 -154 101 -195 17 -54 34
-71 25 -25 -4 19 -46 110 -93 203 -47 92 -83 170 -80 173 4 3 23 -16 43 -43
33 -43 85 -84 85 -67 0 4 -25 35 -55 70 -60 68 -86 117 -110 209 -28 109 -13
185 45 227 22 16 30 17 60 7 19 -6 48 -23 63 -38 22 -20 81 -124 116 -205 2
-5 -17 -7 -43 -4 -39 5 -49 2 -61 -15 -22 -31 -19 -54 3 -27 16 19 21 20 45 9
32 -15 32 -16 7 -54 -24 -37 -26 -82 -3 -107 9 -10 14 -20 11 -23 -10 -10 -73
24 -86 45 -10 16 -17 19 -25 11 -14 -14 17 -49 63 -69 19 -8 47 -27 63 -43 15
-16 29 -29 31 -29 3 0 6 12 8 28 4 24 5 22 11 -13 4 -22 19 -98 33 -169 23
-121 24 -130 8 -147 -19 -22 -67 -25 -82 -7 -5 7 -13 36 -17 63 l-8 50 -8 -34
c-18 -81 35 -139 103 -113 37 14 48 9 48 -23 0 -45 40 -195 65 -244 13 -27 44
-66 69 -88 l45 -39 16 -200 c9 -109 18 -229 22 -266 5 -57 3 -70 -15 -93 -11
-14 -24 -40 -28 -58 -7 -33 -71 -110 -265 -318 -89 -96 -131 -132 -236 -201
-71 -46 -149 -97 -176 -112 -49 -28 -422 -180 -517 -211 -30 -9 -62 -24 -70
-31 -12 -12 75 -14 586 -14 l601 0 7 188 c3 103 15 245 25 317 18 119 73 373
91 420 l8 20 7 -20 c66 -176 185 -293 470 -460 55 -33 110 -67 122 -76 22 -16
21 -16 -40 -21 -99 -8 -213 -76 -329 -194 -63 -65 -138 -156 -138 -168 0 -3 8
-6 18 -6 9 0 36 27 60 60 24 33 49 60 55 60 6 0 37 -27 69 -60 l58 -60 361 0
362 0 32 36 32 36 21 -36 c14 -24 29 -36 43 -36 15 0 19 5 15 15 -12 32 -74
104 -159 182 -94 88 -184 141 -256 150 -77 10 -65 23 110 116 244 129 548 348
722 520 33 32 60 57 62 55 14 -16 57 -118 75 -177 33 -107 22 -214 -45 -429
-15 -49 -121 -306 -150 -362 -24 -48 -28 -70 -11 -70 9 0 16 4 16 8 0 5 7 17
16 28 15 18 15 18 9 -8 l-5 -28 887 1 c489 0 881 3 873 6 -35 13 -143 64 -450
214 -179 87 -365 174 -415 193 -91 37 -329 173 -369 212 -11 11 -57 49 -101
84 -44 34 -86 72 -94 84 -25 36 -140 167 -170 192 -16 13 -39 43 -51 67 -21
40 -22 49 -16 187 9 172 17 223 43 258 46 64 97 189 107 262 9 63 19 76 48 63
49 -21 138 28 153 84 3 14 42 98 85 188 44 90 80 166 80 169 0 3 11 29 24 58
64 144 71 232 26 323 -30 59 -63 85 -119 92 -24 3 -45 12 -48 20 -3 7 13 33
36 58 22 24 41 55 42 67 0 13 4 73 9 133 7 96 14 125 55 230 74 190 78 203 78
305 1 74 -4 110 -22 165 -47 140 -157 326 -227 386 -21 18 -71 64 -111 101
-45 44 -92 78 -130 94 -58 25 -144 105 -181 167 -9 15 -21 27 -27 27 -6 0 -37
31 -68 69 -34 41 -84 87 -126 115 -78 51 -90 64 -70 77 10 6 6 9 -13 9 -14 0
-62 13 -105 29 -43 17 -98 35 -123 41 -24 7 -77 25 -117 41 -87 34 -137 36
-295 9z m-33 -895 c36 -4 80 -18 100 -31 11 -6 31 -15 44 -19 21 -6 23 -5 18
14 -4 17 -2 19 12 11 10 -5 27 -7 39 -4 11 3 28 1 38 -4 13 -7 24 -6 41 5 22
14 27 14 57 -2 20 -11 45 -16 64 -13 18 2 32 1 32 -4 0 -4 18 -5 41 -2 25 4
44 3 48 -4 3 -5 28 -13 54 -15 27 -3 55 -11 63 -18 7 -6 26 -9 40 -6 17 3 27
0 31 -10 5 -11 16 -14 44 -9 38 6 38 6 29 -18 -11 -29 7 -50 30 -36 21 14 40
12 37 -2 -1 -9 10 -12 36 -10 29 3 37 0 37 -12 0 -9 11 -21 24 -26 29 -11 44
-32 28 -38 -19 -6 -14 -24 15 -54 21 -22 24 -30 14 -42 -13 -15 -7 -61 20
-150 5 -16 9 -52 9 -80 0 -28 4 -58 10 -66 6 -9 5 -17 -3 -22 -9 -5 -8 -27 5
-88 13 -61 32 -108 82 -199 36 -65 66 -123 66 -128 0 -5 -13 -8 -30 -5 -32 5
-36 -2 -21 -41 6 -14 7 -27 4 -30 -10 -11 -33 6 -33 25 0 10 -4 16 -10 13 -29
-18 -149 107 -155 162 -1 14 -7 28 -11 32 -5 3 -17 18 -27 33 -24 39 -99 69
-182 75 -75 5 -265 -19 -293 -37 -13 -9 -11 -10 13 -4 50 12 116 14 110 3 -4
-5 -13 -9 -21 -9 -41 0 -143 -60 -200 -119 -59 -59 -63 -61 -90 -50 -27 10
-82 8 -208 -8 -30 -4 -47 -2 -43 3 9 16 -4 29 -78 83 -75 55 -78 59 -20 35 20
-8 40 -12 44 -9 8 9 -25 33 -71 52 -21 8 -38 19 -38 24 0 15 64 -3 87 -24 13
-11 26 -18 29 -14 11 11 -13 32 -71 61 -49 25 -68 29 -182 33 -83 4 -143 1
-171 -6 -53 -15 -113 -73 -195 -187 -43 -61 -68 -86 -99 -100 -36 -16 -41 -16
-52 -3 -6 9 -26 23 -43 33 -18 9 -33 20 -33 24 0 5 14 21 31 38 48 46 112 187
120 264 4 36 10 74 15 84 6 16 4 18 -10 13 -15 -6 -17 -3 -12 15 7 24 25 122
31 170 2 15 7 38 11 50 4 13 8 28 8 35 1 6 12 24 26 40 14 15 44 51 67 79 25
31 66 63 101 82 33 18 65 38 72 47 7 8 26 19 44 24 17 5 61 21 99 35 37 14 67
22 67 18 0 -4 9 4 19 18 15 19 27 24 54 22 20 -1 39 3 43 9 4 7 19 9 43 4 20
-4 45 -8 56 -10z m1275 -125 c0 -5 -2 -10 -4 -10 -3 0 -8 5 -11 10 -3 6 -1 10
4 10 6 0 11 -4 11 -10z m-620 -720 c0 -5 -12 -10 -27 -9 -25 0 -26 1 -8 9 27
12 35 12 35 0z m234 -45 c11 -8 15 -15 10 -15 -6 0 -19 7 -30 15 -10 8 -14 14
-9 14 6 0 19 -6 29 -14z m-1082 -44 c57 -24 131 -96 153 -147 21 -50 29 -130
20 -199 -13 -105 -122 -218 -242 -249 -88 -23 -212 11 -314 87 -64 47 -97 136
-100 267 -2 70 2 93 19 127 22 43 82 91 150 120 78 35 227 32 314 -6z m915 15
c96 -12 177 -62 230 -143 36 -53 38 -60 37 -132 -2 -154 -78 -271 -201 -312
-85 -28 -212 -24 -289 10 -62 27 -126 90 -153 152 -24 54 -45 190 -35 222 11
36 57 103 61 90 4 -10 13 -8 36 4 33 17 43 19 163 29 65 6 100 1 219 -32 13
-4 10 2 -10 15 -39 27 -106 40 -233 44 -99 4 -105 3 -133 -21 -32 -26 -46 -26
-26 1 15 21 147 77 202 87 22 3 49 3 60 0 11 -4 43 -10 72 -14z m-1679 -153
c29 -12 33 -17 18 -20 -25 -6 -136 19 -130 29 9 14 73 9 112 -9z m62 -40 c-1
-24 -2 -26 -11 -10 -5 9 -7 22 -4 27 10 17 15 11 15 -17z m70 7 c0 -11 -7 -20
-15 -20 -8 0 -15 9 -15 20 0 11 7 20 15 20 8 0 15 -9 15 -20z m1070 -25 c12
-11 19 -39 24 -92 11 -132 80 -249 175 -298 71 -36 183 -51 269 -37 95 16 173
51 205 93 45 60 75 127 93 209 20 93 25 96 118 82 54 -9 58 -8 66 12 6 14 4
25 -6 32 -11 9 6 13 71 18 47 4 90 4 95 1 23 -14 -4 -25 -60 -25 -32 0 -62 -4
-65 -10 -12 -19 -6 -130 9 -183 10 -34 17 -102 18 -180 2 -98 5 -124 15 -116
6 6 15 42 19 80 5 58 10 69 25 69 10 0 23 9 28 19 22 40 88 82 140 88 36 4 51
10 51 21 0 12 -11 14 -55 10 -43 -4 -64 -12 -95 -37 -45 -36 -49 -32 -19 23
11 21 18 41 15 44 -14 14 29 42 64 42 86 0 150 -86 150 -202 0 -83 -22 -151
-113 -338 -35 -74 -83 -174 -105 -222 -34 -72 -47 -91 -75 -104 -38 -18 -81
-13 -90 10 -3 8 2 61 13 118 24 137 35 278 21 278 -12 0 -31 -63 -31 -105 0
-38 -23 -166 -50 -277 -47 -197 -107 -338 -177 -414 -38 -42 -172 -154 -227
-189 -16 -11 -24 -21 -19 -22 15 -5 169 92 233 146 36 30 51 39 46 26 -4 -11
-16 -103 -25 -204 l-17 -185 -55 -48 c-120 -109 -459 -357 -579 -426 -81 -46
-228 -138 -261 -164 -20 -15 -41 -28 -47 -28 -5 0 -44 23 -86 50 -42 28 -79
50 -82 50 -3 0 -65 39 -137 86 -207 134 -324 262 -366 398 -19 62 -22 87 -41
321 -6 72 -13 141 -16 154 -4 19 17 4 88 -65 52 -49 126 -111 166 -139 40 -27
103 -71 140 -96 124 -85 239 -118 413 -119 112 0 171 12 283 56 161 65 185 95
34 44 -161 -55 -340 -74 -473 -49 -167 31 -350 143 -527 322 -168 169 -272
339 -297 482 -7 39 -23 113 -36 165 -13 52 -28 133 -35 180 -6 47 -18 102 -27
122 -13 32 -19 36 -31 26 -11 -10 -17 -8 -29 7 -19 27 -9 75 21 100 35 29 61
115 90 290 l12 70 67 9 c59 7 70 6 87 -9 11 -10 20 -29 20 -41 0 -35 50 -174
77 -216 74 -111 314 -191 436 -144 127 48 303 305 259 377 -20 32 -14 45 31
59 23 7 47 14 52 16 21 7 99 -7 115 -21z m-1307 -50 c39 -93 35 -107 -16 -52
-27 30 -55 49 -75 53 -72 15 -42 57 43 63 16 0 26 -14 48 -64z m2172 -1215
c-24 -52 -30 -46 -8 8 9 23 18 40 21 37 3 -3 -3 -23 -13 -45z"/>
<path d="M1981 2935 c-95 -23 -201 -88 -179 -110 3 -3 17 0 32 6 20 10 40 9
98 -4 85 -19 268 -27 268 -12 0 6 -9 25 -20 43 l-21 34 21 -7 c31 -10 24 11
-13 39 -39 30 -95 33 -186 11z m29 -61 c0 -19 -28 -30 -42 -16 -8 8 -8 15 1
26 14 17 41 10 41 -10z m150 -30 c0 -9 -11 -14 -30 -14 -25 0 -30 4 -30 23 0
13 3 26 6 30 9 9 54 -23 54 -39z m-220 15 c0 -5 -7 -9 -15 -9 -15 0 -20 12 -9
23 8 8 24 -1 24 -14z"/>
<path d="M2865 2935 c-5 -2 -27 -6 -47 -10 -24 -4 -49 -18 -68 -38 -37 -40
-39 -55 -2 -32 22 14 20 10 -11 -23 -42 -43 -37 -60 11 -47 15 4 79 9 142 10
63 2 130 8 149 14 28 9 38 8 51 -4 40 -36 40 -7 1 38 -46 52 -180 107 -226 92z
m-9 -122 c-1 -1 -24 1 -50 5 l-49 7 44 40 44 39 6 -44 c4 -25 6 -46 5 -47z
m71 60 c4 -12 -34 -29 -44 -19 -3 3 -3 12 1 21 7 18 37 17 43 -2z m122 -26
c13 -16 5 -27 -21 -27 -11 0 -18 7 -18 20 0 23 22 27 39 7z"/>
<path d="M3770 2600 c0 -9 5 -21 11 -27 7 -7 14 -46 17 -88 2 -41 8 -78 12
-80 14 -9 21 83 10 124 -11 44 -49 97 -50 71z"/>
<path d="M3600 2404 c-15 -38 -12 -59 11 -99 l22 -36 -37 -53 c-33 -48 -35
-55 -25 -84 14 -41 27 -41 31 1 3 30 5 32 47 35 45 3 70 22 70 52 0 10 -8 5
-23 -13 -20 -25 -25 -27 -51 -17 -26 10 -27 12 -11 29 21 24 20 63 -3 102 -24
39 -13 69 23 69 28 0 42 -15 51 -53 7 -28 25 -38 25 -13 0 79 -106 145 -130
80z"/>
<path d="M2133 2340 c-37 -34 -42 -67 -16 -111 16 -26 68 -58 79 -47 2 3 -14
24 -36 46 l-41 41 17 33 c9 18 23 41 32 51 25 28 0 19 -35 -13z"/>
<path d="M2763 2278 l2 -53 -42 -20 c-47 -22 -55 -35 -22 -35 30 0 86 36 92
60 6 24 -9 87 -23 95 -6 3 -9 -16 -7 -47z"/>
<path d="M2238 2229 c-31 -18 -20 -29 29 -29 35 0 55 -7 81 -27 54 -41 113
-42 186 -3 46 25 67 31 93 27 24 -4 33 -2 30 6 -2 7 -24 13 -50 15 -34 2 -58
-3 -94 -22 -26 -15 -54 -26 -62 -26 -8 0 -45 16 -82 35 -70 36 -101 42 -131
24z"/>
<path d="M2090 1929 c-76 -14 -135 -35 -137 -50 -7 -37 162 -172 267 -213 142
-56 345 -28 525 72 120 67 135 77 132 87 -5 16 -85 53 -157 72 -50 13 -97 17
-199 15 -89 -1 -159 3 -207 13 -79 16 -152 18 -224 4z m221 -30 c30 -7 126
-13 214 -14 178 -3 287 -24 293 -58 8 -39 -101 -55 -164 -25 -15 7 -28 7 -40
0 -11 -6 -27 -6 -45 0 -19 6 -34 6 -49 -2 -12 -6 -34 -9 -50 -5 -15 3 -68 8
-117 11 -48 2 -117 6 -153 8 -35 3 -73 0 -83 -6 -12 -6 -22 -6 -26 -1 -3 6
-18 13 -32 16 -29 7 -55 52 -37 63 37 23 206 30 289 13z m119 -138 c63 -5 121
-6 128 -3 7 2 33 -1 58 -8 60 -17 47 -29 -70 -65 -77 -23 -102 -27 -180 -23
-85 3 -97 7 -166 45 -75 41 -101 66 -58 56 13 -3 29 -10 36 -16 9 -8 19 -4 35
12 18 17 29 20 62 16 22 -3 92 -10 155 -14z"/>
<path d="M3153 4650 c31 -28 72 -69 92 -92 19 -23 35 -37 35 -31 0 14 -159
173 -173 173 -6 0 14 -23 46 -50z"/>
<path d="M3305 4480 c9 -16 18 -30 21 -30 2 0 -2 14 -11 30 -9 17 -18 30 -21
30 -2 0 2 -13 11 -30z"/>
<path d="M1080 2680 c-24 -47 -27 -137 -5 -166 17 -22 18 -20 16 71 -1 46 3
80 14 99 18 33 18 36 5 36 -5 0 -19 -18 -30 -40z"/>
</g>
</svg>
